<?xml version="1.0" encoding="utf-8"?>
<!-- Generator: Adobe Illustrator 19.0.0, SVG Export Plug-In . SVG Version: 6.00 Build 0)  -->
<svg version="1.1" id="Слой_1" xmlns="http://www.w3.org/2000/svg" xmlns:xlink="http://www.w3.org/1999/xlink" x="0px" y="0px"
	 viewBox="0 0 305.8 222" enable-background="new 0 0 305.8 222" xml:space="preserve">
<g>
	<defs>
		<rect id="SVGID_1_" width="305.8" height="222"/>
	</defs>
	<clipPath id="SVGID_2_">
		<use xlink:href="#SVGID_1_"  overflow="visible"/>
	</clipPath>
	<path clip-path="url(#SVGID_2_)" fill="#345972" d="M211,64c0,32.1-26,58.1-58.1,58.1c-32.1,0-58-26-58-58.1s26-58,58-58
		C185,6,211,31.9,211,64"/>
	<path clip-path="url(#SVGID_2_)" fill="#345972" d="M152.9,2.9C186.6,2.9,214,30.3,214,64s-27.4,61.1-61.1,61.1
		c-33.7,0-61.1-27.4-61.1-61.1S119.2,2.9,152.9,2.9 M152.9,0c-35.3,0-64,28.7-64,64s28.7,64,64,64s64-28.7,64-64S188.2,0,152.9,0"/>
	<path clip-path="url(#SVGID_2_)" fill="#FFFFFF" d="M181.9,71.3h-43.5c-8,0-14.5-6.5-14.5-14.5h43.5
		C175.4,56.7,181.9,63.2,181.9,71.3"/>
	<path clip-path="url(#SVGID_2_)" fill="#FFFFFF" d="M167.4,27.7h-29c-8,0-14.5,6.5-14.5,14.5v11h14.5v-11h43.5
		C181.9,34.2,175.4,27.7,167.4,27.7"/>
	<path clip-path="url(#SVGID_2_)" fill="#FFFFFF" d="M167.4,74.7v11h-43.5c0,8,6.5,14.5,14.5,14.5h29c8,0,14.5-6.5,14.5-14.5v-11
		H167.4z"/>
	<path clip-path="url(#SVGID_2_)" fill="#345972" d="M1.8,220.5v-10.8c7.5,0.7,13.8,1.1,19.1,1.1c3.1,0,5.5-0.1,7.2-0.4
		c1.7-0.3,3-0.7,3.9-1.4c0.8-0.6,1.3-1.3,1.5-2.2c0.2-0.8,0.3-2.1,0.3-3.6c0-1.8-0.1-3-0.4-3.9c-0.2-0.8-0.7-1.4-1.5-1.8
		c-0.7-0.4-1.9-0.7-3.6-0.9L15,195.1c-4-0.5-7.1-1.6-9.3-3.1c-2.2-1.5-3.7-3.5-4.5-6c-0.8-2.5-1.2-5.5-1.2-9.1c0-5.3,1-9.4,2.9-12.1
		c1.9-2.8,4.5-4.6,7.8-5.4c3.3-0.8,7.5-1.3,12.6-1.3c7.9,0,14.7,0.6,20.4,1.8v10.5c-5.9-0.8-11.8-1.2-17.7-1.2
		c-5.5,0-9.1,0.5-10.8,1.4c-1,0.5-1.6,1.1-1.8,1.9c-0.2,0.8-0.4,2-0.4,3.5c0,1.8,0.1,3.1,0.4,3.9c0.2,0.8,0.8,1.4,1.6,1.7
		c0.8,0.3,2.2,0.6,4.1,0.9l14.4,1.7c2.8,0.3,5.1,0.9,6.9,1.7c1.8,0.8,3.2,2.2,4.3,4c1.5,2.6,2.2,6.6,2.2,12.1c0,5.8-0.9,10.1-2.7,13
		c-1.8,2.9-4.3,4.8-7.3,5.7c-3.1,0.9-7.1,1.3-12,1.3C15.8,222,8.2,221.5,1.8,220.5"/>
	<polygon clip-path="url(#SVGID_2_)" fill="#345972" points="73.1,221.3 73.1,170.5 54.9,170.5 54.9,158.7 104.2,158.7 104.2,170.5 
		86,170.5 86,221.3 	"/>
	<path clip-path="url(#SVGID_2_)" fill="#345972" d="M151,221.3l-4.5-13.5h-24.4l-4.5,13.5h-13l21.2-62.5h17.4l21.2,62.5H151z
		 M134.5,170.9H134l-8.5,25.6H143L134.5,170.9z"/>
	<path clip-path="url(#SVGID_2_)" fill="#345972" d="M173.7,220.5v-10.8c7.5,0.7,13.8,1.1,19.1,1.1c3.1,0,5.5-0.1,7.2-0.4
		c1.7-0.3,3-0.7,3.9-1.4c0.8-0.6,1.3-1.3,1.5-2.2c0.2-0.8,0.3-2.1,0.3-3.6c0-1.8-0.1-3-0.4-3.9c-0.2-0.8-0.7-1.4-1.5-1.8
		c-0.7-0.4-1.9-0.7-3.6-0.9l-13.4-1.5c-4-0.5-7.1-1.6-9.3-3.1c-2.2-1.5-3.7-3.5-4.5-6c-0.8-2.5-1.2-5.5-1.2-9.1
		c0-5.3,1-9.4,2.9-12.1c1.9-2.8,4.5-4.6,7.8-5.4c3.3-0.8,7.5-1.3,12.6-1.3c7.9,0,14.7,0.6,20.4,1.8v10.5c-5.9-0.8-11.8-1.2-17.7-1.2
		c-5.5,0-9.1,0.5-10.8,1.4c-1,0.5-1.6,1.1-1.8,1.9c-0.2,0.8-0.4,2-0.4,3.5c0,1.8,0.1,3.1,0.4,3.9c0.2,0.8,0.8,1.4,1.6,1.7
		c0.8,0.3,2.2,0.6,4.1,0.9l14.4,1.7c2.8,0.3,5.1,0.9,6.9,1.7c1.8,0.8,3.2,2.2,4.3,4c1.5,2.6,2.2,6.6,2.2,12.1c0,5.8-0.9,10.1-2.7,13
		c-1.8,2.9-4.3,4.8-7.3,5.7c-3.1,0.9-7.1,1.3-12,1.3C187.7,222,180.1,221.5,173.7,220.5"/>
	<rect x="232.4" y="158.7" clip-path="url(#SVGID_2_)" fill="#345972" width="12.9" height="62.5"/>
	<path clip-path="url(#SVGID_2_)" fill="#345972" d="M260.8,220.5v-10.8c7.5,0.7,13.8,1.1,19.1,1.1c3.1,0,5.5-0.1,7.2-0.4
		c1.7-0.3,3-0.7,3.9-1.4c0.8-0.6,1.3-1.3,1.5-2.2c0.2-0.8,0.3-2.1,0.3-3.6c0-1.8-0.1-3-0.4-3.9c-0.2-0.8-0.7-1.4-1.5-1.8
		c-0.7-0.4-1.9-0.7-3.6-0.9l-13.4-1.5c-4-0.5-7.1-1.6-9.3-3.1c-2.2-1.5-3.7-3.5-4.5-6c-0.8-2.5-1.2-5.5-1.2-9.1
		c0-5.3,1-9.4,2.9-12.1c1.9-2.8,4.5-4.6,7.8-5.4c3.3-0.8,7.5-1.3,12.6-1.3c7.9,0,14.7,0.6,20.4,1.8v10.5c-5.9-0.8-11.8-1.2-17.7-1.2
		c-5.5,0-9.1,0.5-10.8,1.4c-1,0.5-1.6,1.1-1.8,1.9c-0.2,0.8-0.4,2-0.4,3.5c0,1.8,0.1,3.1,0.4,3.9c0.2,0.8,0.8,1.4,1.6,1.7
		c0.8,0.3,2.2,0.6,4.1,0.9l14.4,1.7c2.8,0.3,5.1,0.9,6.9,1.7c1.8,0.8,3.2,2.2,4.3,4c1.5,2.6,2.2,6.6,2.2,12.1c0,5.8-0.9,10.1-2.7,13
		c-1.8,2.9-4.3,4.8-7.3,5.7c-3.1,0.9-7.1,1.3-12,1.3C274.8,222,267.2,221.5,260.8,220.5"/>
</g>
</svg>
