<?xml version="1.0" encoding="utf-8"?>
<!-- Generator: Adobe Illustrator 19.0.0, SVG Export Plug-In . SVG Version: 6.00 Build 0)  -->
<svg version="1.1" id="Layer_1" xmlns="http://www.w3.org/2000/svg" xmlns:xlink="http://www.w3.org/1999/xlink" x="0px" y="0px"
	 viewBox="-201.7 267.4 236.9 64" enable-background="new -201.7 267.4 236.9 64" xml:space="preserve">
<g>
	<path fill="none" d="M-161.7,295.4h-24c0,4.4,3.6,8,8,8h24C-153.7,299-157.3,295.4-161.7,295.4z"/>
	<path fill="none" d="M-161.7,279.4h-16c-4.4,0-8,3.6-8,8v5h8v-5h24C-153.7,283-157.3,279.4-161.7,279.4z"/>
	<polygon fill="none" points="-50.7,289.9 -54.9,302.7 -46.2,302.7 -50.5,289.9 	"/>
	<path fill="none" d="M-161.7,311.4h-24c0,4.4,3.6,8,8,8h16c4.4,0,8-3.6,8-8v-5h-8V311.4z"/>
	<path fill="#FFFFFF" d="M-169.7,267.4c-17.7,0-32,14.3-32,32s14.3,32,32,32s32-14.3,32-32S-152,267.4-169.7,267.4z M-153.7,311.4
		c0,4.4-3.6,8-8,8h-16c-4.4,0-8-3.6-8-8h24v-5h8V311.4z M-177.7,303.4c-4.4,0-8-3.6-8-8h24c4.4,0,8,3.6,8,8H-177.7z M-177.7,287.4v5
		h-8v-5c0-4.4,3.6-8,8-8h16c4.4,0,8,3.6,8,8H-177.7z"/>
	<path fill="#FFFFFF" d="M-97.5,297.3c-0.9-0.4-2.1-0.7-3.5-0.8l-7.2-0.9c-1-0.1-1.7-0.3-2.1-0.4c-0.4-0.2-0.7-0.4-0.8-0.8
		c-0.1-0.4-0.2-1-0.2-2c0-0.8,0.1-1.4,0.2-1.8c0.1-0.4,0.4-0.7,0.9-1c0.9-0.5,2.7-0.7,5.4-0.7c3,0,5.9,0.2,8.9,0.6v-5.3
		c-2.8-0.5-6.1-0.8-10.1-0.8c-2.6,0-4.7,0.2-6.3,0.6c-1.6,0.4-2.9,1.3-3.9,2.7c-1,1.4-1.5,3.4-1.5,6.1c0,1.8,0.2,3.3,0.6,4.6
		c0.4,1.2,1.2,2.2,2.2,3c1.1,0.8,2.6,1.3,4.6,1.6l6.7,0.8c0.8,0.1,1.5,0.2,1.8,0.4c0.4,0.2,0.6,0.5,0.7,0.9c0.1,0.4,0.2,1.1,0.2,1.9
		c0,0.8-0.1,1.4-0.2,1.8s-0.4,0.8-0.7,1.1c-0.4,0.3-1.1,0.6-1.9,0.7c-0.9,0.1-2.1,0.2-3.6,0.2c-2.6,0-5.8-0.2-9.5-0.5v5.4
		c3.2,0.5,7,0.7,11.5,0.7c2.5,0,4.5-0.2,6-0.7c1.5-0.4,2.7-1.4,3.7-2.8c0.9-1.5,1.4-3.6,1.4-6.5c0-2.7-0.4-4.7-1.1-6
		C-95.9,298.4-96.6,297.7-97.5,297.3z"/>
	<polygon fill="#FFFFFF" points="-90.2,289.6 -81.2,289.6 -81.2,315 -74.7,315 -74.7,289.6 -65.6,289.6 -65.6,283.8 -90.2,283.8 	
		"/>
	<path fill="#FFFFFF" d="M-54.8,283.8l-10.6,31.3h6.5l2.2-6.7h12.2l2.3,6.7h6.7l-10.6-31.3C-46.1,283.8-54.8,283.8-54.8,283.8z
		 M-54.9,302.7l4.2-12.8h0.2l4.3,12.8H-54.9z"/>
	<path fill="#FFFFFF" d="M-11.6,297.3c-0.9-0.4-2.1-0.7-3.5-0.8l-7.2-0.9c-1-0.1-1.7-0.3-2.1-0.4c-0.4-0.2-0.7-0.4-0.8-0.8
		s-0.2-1-0.2-2c0-0.8,0.1-1.4,0.2-1.8c0.1-0.4,0.4-0.7,0.9-1c0.9-0.5,2.7-0.7,5.4-0.7c3,0,5.9,0.2,8.9,0.6v-5.3
		c-2.8-0.6-6.2-0.9-10.2-0.9c-2.6,0-4.7,0.2-6.3,0.6s-2.9,1.3-3.9,2.7c-1,1.4-1.5,3.4-1.5,6.1c0,1.8,0.2,3.3,0.6,4.6
		c0.4,1.2,1.2,2.2,2.2,3c1.1,0.8,2.6,1.3,4.6,1.6l6.7,0.8c0.8,0.1,1.5,0.2,1.8,0.4c0.4,0.2,0.6,0.5,0.7,0.9c0.1,0.4,0.2,1.1,0.2,1.9
		c0,0.8-0.1,1.4-0.2,1.8c-0.1,0.4-0.4,0.8-0.7,1.1c-0.4,0.3-1.1,0.6-1.9,0.7c-0.9,0.1-2.1,0.2-3.6,0.2c-2.6,0-5.8-0.2-9.5-0.5v5.4
		c3.2,0.5,7,0.7,11.5,0.7c2.5,0,4.5-0.2,6-0.7c1.5-0.4,2.7-1.4,3.7-2.8c0.9-1.5,1.4-3.6,1.4-6.5c0-2.7-0.4-4.7-1.1-6
		C-9.9,298.4-10.7,297.7-11.6,297.3z"/>
	<rect x="-1.5" y="283.8" fill="#FFFFFF" width="6.5" height="31.3"/>
	<path fill="#FFFFFF" d="M34.1,299.4c-0.5-0.9-1.2-1.6-2.1-2c-0.9-0.4-2.1-0.7-3.5-0.8l-7.2-0.9c-1-0.1-1.7-0.3-2.1-0.4
		c-0.4-0.2-0.7-0.4-0.8-0.8s-0.2-1-0.2-2c0-0.8,0.1-1.4,0.2-1.8c0.1-0.4,0.4-0.7,0.9-1c0.9-0.5,2.7-0.7,5.4-0.7c3,0,5.9,0.2,8.9,0.6
		v-5.3c-2.8-0.6-6.2-0.9-10.2-0.9c-2.6,0-4.7,0.2-6.3,0.6s-2.9,1.3-3.9,2.7c-1,1.4-1.5,3.4-1.5,6.1c0,1.8,0.2,3.3,0.6,4.6
		c0.4,1.2,1.2,2.2,2.2,3c1.1,0.8,2.6,1.3,4.6,1.6l6.7,0.8c0.8,0.1,1.5,0.2,1.8,0.4c0.4,0.2,0.6,0.5,0.7,0.9c0.1,0.4,0.2,1.1,0.2,1.9
		c0,0.8-0.1,1.4-0.2,1.8c-0.1,0.4-0.4,0.8-0.7,1.1c-0.4,0.3-1.1,0.6-1.9,0.7c-0.9,0.1-2.1,0.2-3.6,0.2c-2.6,0-5.8-0.2-9.5-0.5v5.4
		c3.2,0.5,7,0.7,11.5,0.7c2.5,0,4.5-0.2,6-0.7c1.5-0.4,2.7-1.4,3.7-2.8c0.9-1.5,1.4-3.6,1.4-6.5C35.2,302.7,34.8,300.7,34.1,299.4z"
		/>
</g>
</svg>
